 <svg id="sw-js-blob-svg" viewBox="0 0 100 100" >                    
 <defs>
  <radialGradient id="sw-gradient6" cx="0" cy="1"  r="150%">                       
    <stop stop-color="rgba(0, 19, 225, 0.3)" offset="50%"></stop>                            
    <stop  stop-color="rgba(0, 19, 225, 0.1)" offset="100%">
    </stop>      
  </radialGradient>                    
 </defs>                
 <path fill="url(#sw-gradient6)" 
 d="M22.1,-24.4C29.4,-20.3,36.5,-14,37.5,-6.8C38.5,0.3,33.3,8.3,27.8,14.3C22.2,20.2,16.2,24.2,9.3,27.5C2.5,30.8,-5.4,33.5,-13.5,32.5C-21.6,31.5,-30.1,26.9,-33.1,19.9C-36.1,13,-33.8,3.7,-31.2,-4.6C-28.6,-12.8,-25.8,-20.2,-20.6,-24.6C-15.4,-29.1,-7.7,-30.8,-0.1,-30.6C7.4,-30.4,14.8,-28.5,22.1,-24.4Z" width="100%" height="100%" transform="translate(50 30)" stroke-width="0" style="transition: all 0.3s ease 0s;">
 <animate attributeName="d" values="M22.1,-24.4C29.4,-20.3,36.5,-14,37.5,-6.8C38.5,0.3,33.3,8.3,27.8,14.3C22.2,20.2,16.2,24.2,9.3,27.5C2.5,30.8,-5.4,33.5,-13.5,32.5C-21.6,31.5,-30.1,26.9,-33.1,19.9C-36.1,13,-33.8,3.7,-31.2,-4.6C-28.6,-12.8,-25.8,-20.2,-20.6,-24.6C-15.4,-29.1,-7.7,-30.8,-0.1,-30.6C7.4,-30.4,14.8,-28.5,22.1,-24.4Z;M18.2,-23.3C23.7,-17.1,28.2,-11.4,30.5,-4.5C32.8,2.4,32.7,10.7,29.3,17.2C25.9,23.8,19.1,28.7,11.2,32.2C3.3,35.7,-5.6,37.7,-13,35.2C-20.4,32.7,-26.2,25.6,-31,17.7C-35.8,9.8,-39.5,1.1,-38.4,-7.1C-37.3,-15.2,-31.4,-22.8,-24.2,-28.8C-17,-34.7,-8.5,-39,-1.1,-37.7C6.4,-36.4,12.7,-29.6,18.2,-23.3Z;M22.1,-24.4C29.4,-20.3,36.5,-14,37.5,-6.8C38.5,0.3,33.3,8.3,27.8,14.3C22.2,20.2,16.2,24.2,9.3,27.5C2.5,30.8,-5.4,33.5,-13.5,32.5C-21.6,31.5,-30.1,26.9,-33.1,19.9C-36.1,13,-33.8,3.7,-31.2,-4.6C-28.6,-12.8,-25.8,-20.2,-20.6,-24.6C-15.4,-29.1,-7.7,-30.8,-0.1,-30.6C7.4,-30.4,14.8,-28.5,22.1,-24.4Z" dur="20s" repeatCount="indefinite"/>
 </path>             
 </svg>
