 <svg id="sw-js-blob-svg" viewBox="0 0 50 100" >                    
 <defs>
  <linearGradient id="sw-gradient5" x1="0" x2="1" y1="1" y2="0">                            
    <stop id="stop1" stop-color="rgba(0, 19, 225, 0.3)" offset="30%"></stop>                            
    <stop id="stop2" stop-color="rgba(20, 94, 242, 0.4)" offset="100%">
    </stop>      
        <!-- <animate attributeName="y1" values="0;1;0;" dur="10s" repeatCount="indefinite"/>  
        <animate attributeName="x2" values="1;0.5;1;0.5" dur="15s" repeatCount="indefinite"/> -->
    >                 
  </linearGradient>                  
 </defs>                
 <path fill="url(#sw-gradient5)" 
 d="M20,-30.4C24.1,-24.5,24.3,-16.3,23.1,-9.9C21.9,-3.5,19.2,0.9,17.5,5.6C15.9,10.3,15.2,15.1,12.5,17.6C9.7,20,4.9,19.9,-1.7,22.3C-8.3,24.6,-16.5,29.4,-18.9,26.8C-21.2,24.3,-17.5,14.4,-17.1,7.5C-16.6,0.6,-19.3,-3.3,-18.4,-5.9C-17.4,-8.6,-12.9,-10,-9.2,-16C-5.6,-22,-2.8,-32.5,2.6,-36C7.9,-39.6,15.9,-36.2,20,-30.4Z" width="100%" height="100%" transform="translate(50 50) scale(1 2)" stroke-width="0" style="transition: all 0.3s ease 0s;">
 <animate attributeName="d" values="M20,-30.4C24.1,-24.5,24.3,-16.3,23.1,-9.9C21.9,-3.5,19.2,0.9,17.5,5.6C15.9,10.3,15.2,15.1,12.5,17.6C9.7,20,4.9,19.9,-1.7,22.3C-8.3,24.6,-16.5,29.4,-18.9,26.8C-21.2,24.3,-17.5,14.4,-17.1,7.5C-16.6,0.6,-19.3,-3.3,-18.4,-5.9C-17.4,-8.6,-12.9,-10,-9.2,-16C-5.6,-22,-2.8,-32.5,2.6,-36C7.9,-39.6,15.9,-36.2,20,-30.4Z;M19.7,-27.9C25.9,-22.7,31.4,-17.3,34.9,-10.5C38.3,-3.6,39.7,4.9,34.9,8.8C30.1,12.7,19.2,12,12.3,18C5.5,23.9,2.7,36.5,-3.5,41.3C-9.7,46.1,-19.4,43.1,-25.7,36.9C-31.9,30.8,-34.7,21.5,-34.8,13.2C-34.9,4.9,-32.2,-2.3,-29.8,-9.6C-27.3,-16.9,-25.1,-24.2,-20.2,-29.8C-15.2,-35.5,-7.6,-39.6,-0.4,-39C6.8,-38.4,13.5,-33.2,19.7,-27.9Z;M20,-30.4C24.1,-24.5,24.3,-16.3,23.1,-9.9C21.9,-3.5,19.2,0.9,17.5,5.6C15.9,10.3,15.2,15.1,12.5,17.6C9.7,20,4.9,19.9,-1.7,22.3C-8.3,24.6,-16.5,29.4,-18.9,26.8C-21.2,24.3,-17.5,14.4,-17.1,7.5C-16.6,0.6,-19.3,-3.3,-18.4,-5.9C-17.4,-8.6,-12.9,-10,-9.2,-16C-5.6,-22,-2.8,-32.5,2.6,-36C7.9,-39.6,15.9,-36.2,20,-30.4Z" dur="40s" repeatCount="indefinite"/>
 </path>             
 </svg>
