 <svg id="sw-js-blob-svg" viewBox="0 0 50 100" >                    
 <defs>
  <radialGradient id="sw-gradient3" cx="0"  cy="1" fx="0.5" r="150%"> 
     <stop stop-color="rgba(141, 6, 225, 0.0)" offset="10%"></stop>                       
    <stop stop-color="rgba(141, 6, 225, 0.3)" offset="50%"></stop>                            
    <stop  stop-color="rgba(0, 19, 225, 0.0)" offset="80%">
    </stop>      
        <!-- <animate attributeName="cy" values="-1;0.6;-1;" dur="30s" repeatCount="indefinite"/>  
        <animate attributeName="cx" values="-1.5;0.5;0.1;0.5" dur="30s" repeatCount="indefinite"/> -->
           <!-- <animate attributeName="x2" values="0;0.1;0;" dur="20s" repeatCount="indefinite"/>  
        <animate attributeName="y1" values="0.1;0.3;0.1" dur="20s" repeatCount="indefinite"/>                  -->
  </radialGradient>                    
 </defs>                
 <path fill="url(#sw-gradient3)" 
 d="M18.7,-22.2C25.3,-20.9,32.5,-16.9,32.5,-11.8C32.5,-6.6,25.3,-0.4,21.1,5.1C16.9,10.6,15.7,15.3,12.7,22.5C9.7,29.7,4.8,39.3,0.2,39C-4.4,38.7,-8.8,28.5,-15.6,22.5C-22.3,16.5,-31.4,14.8,-36,9.6C-40.6,4.3,-40.8,-4.5,-37.9,-12C-35,-19.5,-29,-25.6,-22.2,-26.8C-15.4,-28.1,-7.7,-24.4,-0.8,-23.3C6,-22.2,12.1,-23.5,18.7,-22.2Z" width="100%" height="100%" stroke-width="0" style="transition: all 0.3s ease 0s;" transform="translate(0 50) scale(1 2)">
 <animate attributeName="d" values="M18.7,-22.2C25.3,-20.9,32.5,-16.9,32.5,-11.8C32.5,-6.6,25.3,-0.4,21.1,5.1C16.9,10.6,15.7,15.3,12.7,22.5C9.7,29.7,4.8,39.3,0.2,39C-4.4,38.7,-8.8,28.5,-15.6,22.5C-22.3,16.5,-31.4,14.8,-36,9.6C-40.6,4.3,-40.8,-4.5,-37.9,-12C-35,-19.5,-29,-25.6,-22.2,-26.8C-15.4,-28.1,-7.7,-24.4,-0.8,-23.3C6,-22.2,12.1,-23.5,18.7,-22.2Z;M15.8,-20.7C20,-18.7,22.6,-13.5,21.2,-9C19.9,-4.5,14.5,-0.7,14.2,6C13.9,12.6,18.5,22.3,17,26.5C15.5,30.8,7.7,29.6,1,28.2C-5.7,26.9,-11.5,25.3,-12.9,21C-14.3,16.7,-11.4,9.7,-14.5,3.9C-17.5,-2,-26.4,-6.7,-28,-11.3C-29.5,-15.9,-23.7,-20.3,-17.8,-21.6C-11.9,-23,-6,-21.4,-0.1,-21.3C5.8,-21.2,11.6,-22.6,15.8,-20.7Z;M13.1,-17.4C16.1,-15.8,17.2,-10.9,21.1,-5.3C24.9,0.2,31.6,6.3,30.9,10.5C30.1,14.6,22,16.8,15.6,17.4C9.2,17.9,4.6,16.7,-1.5,18.7C-7.5,20.7,-15,25.9,-17.2,24C-19.3,22.1,-16,13.1,-19.3,5.7C-22.5,-1.8,-32.2,-7.7,-34.7,-14.9C-37.3,-22,-32.8,-30.5,-25.8,-30.8C-18.8,-31.1,-9.4,-23.3,-2.2,-20.3C5,-17.2,10,-19,13.1,-17.4Z" dur="20s" repeatCount="indefinite"/>
 </path>             
 </svg>
