 <svg id="sw-js-blob-svg" viewBox="0 0 50 100" >                    
 <defs>
  <linearGradient id="sw-gradient" x1="0" x2="1" y1="1" y2="0">                            
    <stop id="stop1" stop-color="rgba(55, 248, 212.039, 0)" offset="30%"></stop>                            
    <stop id="stop2" stop-color="rgba(31, 251, 232.367, 0.2)" offset="100%">
    </stop>      
        <animate attributeName="y1" values="0;1;0;" dur="10s" repeatCount="indefinite"/>  
        <animate attributeName="x2" values="1;0.5;1;0.5" dur="15s" repeatCount="indefinite"/>
           <animate attributeName="x1" values="0;0.1;0;" dur="8s" repeatCount="indefinite"/>  
        <animate attributeName="y2" values="0.1;0.3;0.1;0.3;0.1" dur="9s" repeatCount="indefinite"/>                 
  </linearGradient>                    
 </defs>                
 <path fill="url(#sw-gradient)" 
 d="M10.4,-18.2C12.4,-12.9,12.1,-8.4,12.4,-4.7C12.6,-1,13.3,1.8,13,4.7C12.8,7.7,11.5,10.8,9.1,18C6.8,25.2,3.4,36.5,-2.9,40.4C-9.1,44.3,-18.2,40.9,-24.5,35C-30.8,29.1,-34.3,20.7,-35,12.7C-35.6,4.8,-33.5,-2.7,-29.2,-7.6C-25,-12.4,-18.7,-14.7,-13.5,-19C-8.2,-23.2,-4.1,-29.4,0.1,-29.5C4.2,-29.6,8.5,-23.5,10.4,-18.2Z" width="100%" height="100%" stroke-width="0" style="transition: all 0.3s ease 0s;" transform="translate(0 50)">
 <animate attributeName="d" values="M10.4,-18.2C12.4,-12.9,12.1,-8.4,12.4,-4.7C12.6,-1,13.3,1.8,13,4.7C12.8,7.7,11.5,10.8,9.1,18C6.8,25.2,3.4,36.5,-2.9,40.4C-9.1,44.3,-18.2,40.9,-24.5,35C-30.8,29.1,-34.3,20.7,-35,12.7C-35.6,4.8,-33.5,-2.7,-29.2,-7.6C-25,-12.4,-18.7,-14.7,-13.5,-19C-8.2,-23.2,-4.1,-29.4,0.1,-29.5C4.2,-29.6,8.5,-23.5,10.4,-18.2Z;M18.7,-22.2C25.3,-20.9,32.5,-16.9,32.5,-11.8C32.5,-6.6,25.3,-0.4,21.1,5.1C16.9,10.6,15.7,15.3,12.7,22.5C9.7,29.7,4.8,39.3,0.2,39C-4.4,38.7,-8.8,28.5,-15.6,22.5C-22.3,16.5,-31.4,14.8,-36,9.6C-40.6,4.3,-40.8,-4.5,-37.9,-12C-35,-19.5,-29,-25.6,-22.2,-26.8C-15.4,-28.1,-7.7,-24.4,-0.8,-23.3C6,-22.2,12.1,-23.5,18.7,-22.2Z;M20.3,-28.5C23,-26,19.4,-15.6,22.9,-7C26.4,1.7,36.8,8.5,38.3,15.1C39.8,21.6,32.3,27.9,24.4,27.8C16.6,27.7,8.3,21.1,1.9,18.4C-4.4,15.8,-8.8,16.9,-11.5,15.4C-14.3,13.9,-15.4,9.6,-18.6,4.8C-21.9,0,-27.3,-5.3,-26,-8.2C-24.7,-11,-16.7,-11.5,-11.2,-13C-5.8,-14.6,-2.9,-17.3,3,-21.3C8.8,-25.4,17.7,-30.9,20.3,-28.5Z;M10.4,-18.2C12.4,-12.9,12.1,-8.4,12.4,-4.7C12.6,-1,13.3,1.8,13,4.7C12.8,7.7,11.5,10.8,9.1,18C6.8,25.2,3.4,36.5,-2.9,40.4C-9.1,44.3,-18.2,40.9,-24.5,35C-30.8,29.1,-34.3,20.7,-35,12.7C-35.6,4.8,-33.5,-2.7,-29.2,-7.6C-25,-12.4,-18.7,-14.7,-13.5,-19C-8.2,-23.2,-4.1,-29.4,0.1,-29.5C4.2,-29.6,8.5,-23.5,10.4,-18.2Z" dur="20s" repeatCount="indefinite"/>
 </path>             
 </svg>
