<svg xmlns="http://www.w3.org/2000/svg" xmlns:xlink="http://www.w3.org/1999/xlink" viewBox="0 0 1282 1136.62"><defs><style>.cls-1{fill:url(#grad11);}.cls-2{mask:url(#mask);}.cls-3{fill:none;stroke:#005bfb;stroke-miterlimit:10;}</style><linearGradient id="grad11" x1="639.98" y1="-65.34" x2="639.98" y2="1177.96" gradientUnits="userSpaceOnUse"><stop offset="0"/><stop offset="0.45" stop-color="#fff"/><stop offset="1"/></linearGradient><mask id="mask" x="-4.68" y="0" width="1289.33" height="1183.58" maskUnits="userSpaceOnUse"><rect class="cls-1" x="-4.68" y="41.27" width="1289.33" height="1142.31"/></mask></defs><g id="Layer_2" data-name="Layer 2"><g id="bg"><g class="cls-2"><rect class="cls-3" x="0.5" y="0.5" width="1281" height="1135.62"/><line class="cls-3" x1="0.5" y1="1113.86" x2="1281.5" y2="1113.86"/><line class="cls-3" x1="0.5" y1="1091.59" x2="1281.5" y2="1091.59"/><line class="cls-3" x1="0.5" y1="1069.32" x2="1281.5" y2="1069.32"/><line class="cls-3" x1="0.5" y1="1047.06" x2="1281.5" y2="1047.06"/><line class="cls-3" x1="0.5" y1="1024.79" x2="1281.5" y2="1024.79"/><line class="cls-3" x1="0.5" y1="1002.52" x2="1281.5" y2="1002.52"/><line class="cls-3" x1="0.5" y1="980.25" x2="1281.5" y2="980.25"/><line class="cls-3" x1="0.5" y1="957.99" x2="1281.5" y2="957.99"/><line class="cls-3" x1="0.5" y1="935.72" x2="1281.5" y2="935.72"/><line class="cls-3" x1="0.5" y1="913.45" x2="1281.5" y2="913.45"/><line class="cls-3" x1="0.5" y1="891.19" x2="1281.5" y2="891.19"/><line class="cls-3" x1="0.5" y1="868.92" x2="1281.5" y2="868.92"/><line class="cls-3" x1="0.5" y1="846.65" x2="1281.5" y2="846.65"/><line class="cls-3" x1="0.5" y1="824.38" x2="1281.5" y2="824.38"/><line class="cls-3" x1="0.5" y1="802.12" x2="1281.5" y2="802.12"/><line class="cls-3" x1="0.5" y1="779.85" x2="1281.5" y2="779.85"/><line class="cls-3" x1="0.5" y1="757.58" x2="1281.5" y2="757.58"/><line class="cls-3" x1="0.5" y1="735.32" x2="1281.5" y2="735.32"/><line class="cls-3" x1="0.5" y1="713.05" x2="1281.5" y2="713.05"/><line class="cls-3" x1="0.5" y1="690.78" x2="1281.5" y2="690.78"/><line class="cls-3" x1="0.5" y1="668.51" x2="1281.5" y2="668.51"/><line class="cls-3" x1="0.5" y1="646.25" x2="1281.5" y2="646.25"/><line class="cls-3" x1="0.5" y1="623.98" x2="1281.5" y2="623.98"/><line class="cls-3" x1="0.5" y1="601.71" x2="1281.5" y2="601.71"/><line class="cls-3" x1="0.5" y1="579.45" x2="1281.5" y2="579.45"/><line class="cls-3" x1="0.5" y1="557.18" x2="1281.5" y2="557.18"/><line class="cls-3" x1="0.5" y1="534.91" x2="1281.5" y2="534.91"/><line class="cls-3" x1="0.5" y1="512.64" x2="1281.5" y2="512.64"/><line class="cls-3" x1="0.5" y1="490.38" x2="1281.5" y2="490.38"/><line class="cls-3" x1="0.5" y1="468.11" x2="1281.5" y2="468.11"/><line class="cls-3" x1="0.5" y1="445.84" x2="1281.5" y2="445.84"/><line class="cls-3" x1="0.5" y1="423.58" x2="1281.5" y2="423.58"/><line class="cls-3" x1="0.5" y1="401.31" x2="1281.5" y2="401.31"/><line class="cls-3" x1="0.5" y1="379.04" x2="1281.5" y2="379.04"/><line class="cls-3" x1="0.5" y1="356.77" x2="1281.5" y2="356.77"/><line class="cls-3" x1="0.5" y1="334.51" x2="1281.5" y2="334.51"/><line class="cls-3" x1="0.5" y1="312.24" x2="1281.5" y2="312.24"/><line class="cls-3" x1="0.5" y1="289.97" x2="1281.5" y2="289.97"/><line class="cls-3" x1="0.5" y1="267.71" x2="1281.5" y2="267.71"/><line class="cls-3" x1="0.5" y1="245.44" x2="1281.5" y2="245.44"/><line class="cls-3" x1="0.5" y1="223.17" x2="1281.5" y2="223.17"/><line class="cls-3" x1="0.5" y1="200.9" x2="1281.5" y2="200.9"/><line class="cls-3" x1="0.5" y1="178.64" x2="1281.5" y2="178.64"/><line class="cls-3" x1="0.5" y1="156.37" x2="1281.5" y2="156.37"/><line class="cls-3" x1="0.5" y1="134.1" x2="1281.5" y2="134.1"/><line class="cls-3" x1="0.5" y1="111.84" x2="1281.5" y2="111.84"/><line class="cls-3" x1="0.5" y1="89.57" x2="1281.5" y2="89.57"/><line class="cls-3" x1="0.5" y1="67.3" x2="1281.5" y2="67.3"/><line class="cls-3" x1="0.5" y1="45.03" x2="1281.5" y2="45.03"/><line class="cls-3" x1="0.5" y1="22.77" x2="1281.5" y2="22.77"/><line class="cls-3" x1="1220.5" y1="0.5" x2="1220.5" y2="1136.12"/><line class="cls-3" x1="1159.5" y1="0.5" x2="1159.5" y2="1136.12"/><line class="cls-3" x1="1098.5" y1="0.5" x2="1098.5" y2="1136.12"/><line class="cls-3" x1="1037.5" y1="0.5" x2="1037.5" y2="1136.12"/><line class="cls-3" x1="976.5" y1="0.5" x2="976.5" y2="1136.12"/><line class="cls-3" x1="915.5" y1="0.5" x2="915.5" y2="1136.12"/><line class="cls-3" x1="854.5" y1="0.5" x2="854.5" y2="1136.12"/><line class="cls-3" x1="793.5" y1="0.5" x2="793.5" y2="1136.12"/><line class="cls-3" x1="732.5" y1="0.5" x2="732.5" y2="1136.12"/><line class="cls-3" x1="671.5" y1="0.5" x2="671.5" y2="1136.12"/><line class="cls-3" x1="610.5" y1="0.5" x2="610.5" y2="1136.12"/><line class="cls-3" x1="549.5" y1="0.5" x2="549.5" y2="1136.12"/><line class="cls-3" x1="488.5" y1="0.5" x2="488.5" y2="1136.12"/><line class="cls-3" x1="427.5" y1="0.5" x2="427.5" y2="1136.12"/><line class="cls-3" x1="366.5" y1="0.5" x2="366.5" y2="1136.12"/><line class="cls-3" x1="305.5" y1="0.5" x2="305.5" y2="1136.12"/><line class="cls-3" x1="244.5" y1="0.5" x2="244.5" y2="1136.12"/><line class="cls-3" x1="183.5" y1="0.5" x2="183.5" y2="1136.12"/><line class="cls-3" x1="122.5" y1="0.5" x2="122.5" y2="1136.12"/><line class="cls-3" x1="61.5" y1="0.5" x2="61.5" y2="1136.12"/></g></g></g></svg>